<?xml version="1.0" encoding="utf-8"?>
<!-- Generator: Adobe Illustrator 25.1.0, SVG Export Plug-In . SVG Version: 6.00 Build 0)  -->
<svg version="1.1" id="Layer_1" xmlns="http://www.w3.org/2000/svg" xmlns:xlink="http://www.w3.org/1999/xlink" x="0px" y="0px"
	 viewBox="0 0 136.3 36.4" style="enable-background:new 0 0 136.3 36.4;" xml:space="preserve">
<style type="text/css">
	.st0{fill:url(#SVGID_1_);}
</style>
<g>
	<linearGradient id="SVGID_1_" gradientUnits="userSpaceOnUse" x1="97.1773" y1="17.9373" x2="133.0393" y2="17.9373">
		<stop  offset="0" style="stop-color:#D7282F"/>
		<stop  offset="0.601" style="stop-color:#C0272D"/>
		<stop  offset="0.688" style="stop-color:#B8272C"/>
		<stop  offset="0.8253" style="stop-color:#A1272B"/>
		<stop  offset="0.9949" style="stop-color:#7C2628"/>
		<stop  offset="1" style="stop-color:#7B2628"/>
	</linearGradient>
	<path class="st0" d="M97.2,6.3v23.2l11.6-11.6L97.2,6.3z M133,11.4c0-5.3-4.3-9.7-9.7-9.7h-14.5l6.2,6.2h8.2c1.9,0,3.5,1.5,3.5,3.5
		s-1.5,3.5-3.5,3.5h-5.9L104.3,1.7h-7.1l16.3,16.3L97.2,34.2h7.1l13.1-13.1h5.9c1.9,0,3.5,1.5,3.5,3.5s-1.5,3.5-3.5,3.5h-8.2
		l-6.2,6.2h14.5c5.3,0,9.7-4.3,9.7-9.7c0-2.5-1-4.8-2.6-6.6C132.1,16.2,133,13.9,133,11.4z"/>
	<path d="M66,21.6h5V1.7h-5V21.6z M87.7,1.7v11.5L80.5,1.7h-4.8v19.9h5V9.9l7.2,11.7h4.8V1.7H87.7z M55.5,16.5
		c0,0.6-0.5,1.1-1.1,1.1h-3.9c-0.6,0-1.1-0.5-1.1-1.1V1.7h-5v15.8c0,2.3,1.9,4.2,4.2,4.2h7.6c2.3,0,4.2-1.9,4.2-4.2V1.7h-5V16.5z
		 M40.1,10.4V5.9c0-2.3-1.9-4.1-4.1-4.1H24.2v19.9h5.1v-7h2.3l4.8,7h5.9l-5-7.3C38.9,13.7,40.1,12.2,40.1,10.4z M35.1,9.1
		c0,0.6-0.5,1.1-1.1,1.1h-4.7V5.9H34c0.6,0,1.1,0.5,1.1,1.1V9.1z M17,11.1c1.1-0.8,1.9-2.1,1.9-3.6V6c0-2.4-1.9-4.3-4.3-4.3H3.2
		v19.9H15c2.3,0,4.2-1.9,4.2-4.2v-2.8C19.2,13,18.3,11.7,17,11.1z M8.4,5.9h4.4c0.6,0,1,0.5,1,1v1.5c0,0.6-0.5,1-1,1H8.4V5.9z
		 M14.3,16.4c0,0.6-0.5,1.1-1.1,1.1H8.4v-3.8h4.9c0.6,0,1.1,0.5,1.1,1.1V16.4z"/>
	<path d="M20.4,24.6c1.3,0,2.5,0,3.7,0c1,3.3,2.1,6.6,3.1,9.9c-0.4,0.1-2.1,0.1-2.6,0c-0.2-0.7-0.4-1.3-0.6-2.1c-1.2,0-2.3,0-3.5,0
		c-0.2,0.7-0.4,1.4-0.7,2.1c-0.8,0-1.7,0-2.6,0C18.3,31.2,19.4,27.9,20.4,24.6z M23.4,30.2c-0.4-1.2-0.7-2.3-1.1-3.5
		c0,0-0.1,0-0.1,0c-0.4,1.2-0.7,2.3-1.1,3.5C22,30.2,22.7,30.2,23.4,30.2z"/>
	<path d="M69.2,34.5c1.1-3.3,2.1-6.6,3.1-9.9c1.2,0,2.4,0,3.7,0c1,3.3,2.1,6.6,3.1,9.9c-0.9,0-1.7,0-2.6,0c-0.2-0.7-0.4-1.4-0.6-2.1
		c-1.2,0-2.3,0-3.5,0c-0.2,0.7-0.4,1.4-0.7,2.1C70.9,34.5,70.1,34.5,69.2,34.5z M73.1,30.2c0.8,0,1.5,0,2.2,0
		c-0.4-1.2-0.7-2.4-1.1-3.5C73.8,27.9,73.5,29,73.1,30.2z"/>
	<path d="M33.6,24.6c0.7,0,1.3,0,1.9,0c1.1,0,2.3,0,3.4,0c0.3,0,0.6,0,1,0.1c0.9,0.2,1.6,0.8,1.6,1.8c0.1,0.9,0.1,1.9,0,2.8
		c-0.1,1.1-0.9,1.8-2.1,1.8c-0.9,0-1.7,0-2.6,0c-0.2,0-0.4,0-0.6,0c-0.1,1.1,0,2.3,0,3.4c-0.4,0.1-1.9,0.1-2.5,0
		C33.6,31.2,33.6,27.9,33.6,24.6z M36.1,28.9c0.8,0,1.5,0,2.2,0c0.5,0,0.6-0.2,0.7-0.6c0-0.3,0-0.5,0-0.8c0-0.6-0.2-0.8-0.8-0.8
		c-0.6,0-1.1,0-1.7,0c-0.1,0-0.2,0-0.4,0C36.1,27.5,36.1,28.2,36.1,28.9z"/>
	<path d="M9,31.7c0.8,0.1,1.6,0.2,2.4,0.3c0.3,1-0.3,2.4-1.7,2.6c-0.3,0-0.5,0.1-0.8,0.1c-1.1,0-2.1,0-3.2,0c-0.4,0-0.7-0.1-1-0.2
		c-0.7-0.2-1.2-0.7-1.3-1.4c-0.1-0.3-0.1-0.5-0.1-0.8c0-1.8,0-3.6,0-5.4c0-0.3,0-0.6,0.1-0.9c0.2-0.9,0.9-1.4,1.9-1.5
		c1.4,0,2.9-0.1,4.3,0c1.1,0.1,1.8,0.7,2,2c0,0.2,0,0.4,0,0.6c-0.8,0.1-1.6,0.2-2.5,0.3c0-0.1,0-0.2,0-0.3c-0.1-0.4-0.2-0.5-0.6-0.5
		c-0.7,0-1.4,0-2,0c-0.3,0-0.5,0.2-0.5,0.5c0,0.1,0,0.2,0,0.4c0,1.4,0,2.8,0,4.2c0,0.1,0,0.2,0,0.3c0,0.4,0.2,0.5,0.5,0.6
		c0.2,0,0.4,0,0.6,0c0.3,0,0.7,0,1,0C8.7,32.6,8.8,32.5,9,31.7z"/>
	<path d="M61.8,34.5c-0.9,0-1.7,0-2.5,0c0-2.6,0-5.2,0-7.8c-1,0-1.9,0-2.8,0c0-0.7,0-1.4,0-2.1c2.7,0,5.4,0,8.2,0c0,0.3,0,0.7,0,1
		c0,0.3,0,0.7,0,1c-0.9,0-1.9,0-2.8,0c0,0.2,0,0.4,0,0.6c0,2.2,0,4.5,0,6.7C61.8,34.1,61.8,34.3,61.8,34.5z"/>
	<path d="M88.2,32.4c1.5,0,2.9,0,4.4,0c0,0.4,0,0.7,0,1.1c0,0.3,0,0.7,0,1c-2.3,0-4.6,0-6.9,0c0-3.3,0-6.6,0-9.9c0.8,0,1.6,0,2.4,0
		c0,0.6,0,1.3,0,1.9c0,0.7,0,1.3,0,2c0,0.6,0,1.3,0,1.9C88.2,31.1,88.2,31.7,88.2,32.4z"/>
	<path d="M47.8,24.6c0.8,0,1.6,0,2.4,0c0,0,0,0,0.1,0c0,0,0,0,0,0c0,0.1,0,0.2,0,0.4c0,3.2,0,6.3,0,9.4c-0.4,0.1-1.9,0.1-2.5,0
		C47.8,31.2,47.8,27.9,47.8,24.6z"/>
</g>
</svg>
